<mxfile host="app.diagrams.net" modified="2024-03-21T15:33:38.681Z" agent="Mozilla/5.0 (Linux; Android 10; K) AppleWebKit/537.36 (KHTML, like Gecko) Chrome/121.0.0.0 Safari/537.36" etag="v5FHpqdhi16pQaQARkwk" version="24.0.7" type="github">
  <diagram name="Page-1" id="9HjjZpsJppYOLam2nXCI">
    <mxGraphModel dx="2271" dy="2309" grid="1" gridSize="10" guides="1" tooltips="1" connect="1" arrows="1" fold="1" page="1" pageScale="1" pageWidth="827" pageHeight="1169" math="0" shadow="0">
      <root>
        <mxCell id="0" />
        <mxCell id="1" parent="0" />
        <mxCell id="zzKsqflYv1q1fIZvcmlV-21" value="" style="rounded=0;whiteSpace=wrap;html=1;" parent="1" vertex="1">
          <mxGeometry x="500" y="-100" width="280" height="470" as="geometry" />
        </mxCell>
        <mxCell id="zzKsqflYv1q1fIZvcmlV-6" value="I’m tall when I’m young, and I’m short when I’m old. What am I?" style="text;strokeColor=none;align=center;fillColor=none;html=1;verticalAlign=middle;whiteSpace=wrap;rounded=0;shadow=0;fillStyle=solid;fontSize=24;fontStyle=1" parent="1" vertex="1">
          <mxGeometry x="505" y="108.75" width="270" height="52.5" as="geometry" />
        </mxCell>
        <mxCell id="zzKsqflYv1q1fIZvcmlV-8" value="Type your answer&amp;nbsp;" style="rounded=1;whiteSpace=wrap;html=1;arcSize=50;fontSize=16;fontStyle=0" parent="1" vertex="1">
          <mxGeometry x="557.5" y="190" width="165" height="40" as="geometry" />
        </mxCell>
        <mxCell id="zzKsqflYv1q1fIZvcmlV-11" value="Check" style="rounded=1;whiteSpace=wrap;html=1;labelPosition=center;verticalLabelPosition=middle;align=center;verticalAlign=middle;glass=0;autosize=0;fontStyle=1;fontSize=17;arcSize=50;" parent="1" vertex="1">
          <mxGeometry x="595" y="240" width="90" height="40" as="geometry" />
        </mxCell>
        <mxCell id="zzKsqflYv1q1fIZvcmlV-25" value="Lv.1 Riddle.1" style="text;strokeColor=none;align=center;fillColor=none;html=1;verticalAlign=middle;whiteSpace=wrap;rounded=0;fontSize=24;fontStyle=1;fontColor=#999900;" parent="1" vertex="1">
          <mxGeometry x="545" y="50" width="190" height="30" as="geometry" />
        </mxCell>
        <mxCell id="eUKZWZFoT0ouiTqnJSOM-43" style="edgeStyle=orthogonalEdgeStyle;rounded=0;orthogonalLoop=1;jettySize=auto;html=1;entryX=1;entryY=0.5;entryDx=0;entryDy=0;exitX=0;exitY=0.5;exitDx=0;exitDy=0;" edge="1" parent="1" source="zzKsqflYv1q1fIZvcmlV-27" target="eUKZWZFoT0ouiTqnJSOM-25">
          <mxGeometry relative="1" as="geometry" />
        </mxCell>
        <mxCell id="zzKsqflYv1q1fIZvcmlV-27" value="" style="shape=image;html=1;verticalAlign=top;verticalLabelPosition=bottom;labelBackgroundColor=#ffffff;imageAspect=0;aspect=fixed;image=https://cdn4.iconfinder.com/data/icons/success-filloutline/64/idea-read-knowledge-light_bulb-thinking-128.png" parent="1" vertex="1">
          <mxGeometry x="621.5" y="300" width="37" height="37" as="geometry" />
        </mxCell>
        <mxCell id="yB9FJj3pMb_im3MLU0vD-1" value="" style="rounded=1;whiteSpace=wrap;html=1;arcSize=50;" parent="1" vertex="1">
          <mxGeometry x="542.5" y="-75" width="195" height="75" as="geometry" />
        </mxCell>
        <mxCell id="yB9FJj3pMb_im3MLU0vD-3" value="SCORE&amp;nbsp;" style="text;strokeColor=none;align=center;fillColor=none;html=1;verticalAlign=middle;whiteSpace=wrap;rounded=0;fontSize=24;fontStyle=1;fontColor=#CC6600;" parent="1" vertex="1">
          <mxGeometry x="610" y="-75" width="60" height="40" as="geometry" />
        </mxCell>
        <mxCell id="yB9FJj3pMb_im3MLU0vD-5" value="50" style="text;strokeColor=none;align=center;fillColor=none;html=1;verticalAlign=middle;rounded=0;fontSize=32;fontStyle=1;fontColor=#009900;fontFamily=Helvetica;labelBackgroundColor=default;" parent="1" vertex="1">
          <mxGeometry x="610" y="-35" width="60" height="30" as="geometry" />
        </mxCell>
        <mxCell id="yB9FJj3pMb_im3MLU0vD-7" value="" style="shape=image;html=1;verticalAlign=top;verticalLabelPosition=bottom;labelBackgroundColor=#ffffff;imageAspect=0;aspect=fixed;image=https://cdn0.iconfinder.com/data/icons/phosphor-fill-vol-4/256/speaker-simple-high-fill-128.png" parent="1" vertex="1">
          <mxGeometry x="505" y="-95" width="20" height="20" as="geometry" />
        </mxCell>
        <mxCell id="eUKZWZFoT0ouiTqnJSOM-15" value="" style="rounded=0;whiteSpace=wrap;html=1;" vertex="1" parent="1">
          <mxGeometry x="-20" y="-370" width="280" height="470" as="geometry" />
        </mxCell>
        <mxCell id="eUKZWZFoT0ouiTqnJSOM-16" value="I’m tall when I’m young, and I’m short when I’m old. What am I?" style="text;strokeColor=none;align=center;fillColor=none;html=1;verticalAlign=middle;whiteSpace=wrap;rounded=0;shadow=0;fillStyle=solid;fontSize=24;fontStyle=1" vertex="1" parent="1">
          <mxGeometry x="-15" y="-161.25" width="270" height="52.5" as="geometry" />
        </mxCell>
        <mxCell id="eUKZWZFoT0ouiTqnJSOM-17" value="Type your answer&amp;nbsp;" style="rounded=1;whiteSpace=wrap;html=1;arcSize=50;fontSize=16;fontStyle=0" vertex="1" parent="1">
          <mxGeometry x="37.5" y="-80" width="165" height="40" as="geometry" />
        </mxCell>
        <mxCell id="eUKZWZFoT0ouiTqnJSOM-18" value="Check" style="rounded=1;whiteSpace=wrap;html=1;labelPosition=center;verticalLabelPosition=middle;align=center;verticalAlign=middle;glass=0;autosize=0;fontStyle=1;fontSize=17;arcSize=50;" vertex="1" parent="1">
          <mxGeometry x="75" y="-30" width="90" height="40" as="geometry" />
        </mxCell>
        <mxCell id="eUKZWZFoT0ouiTqnJSOM-19" value="Lv.1 Riddle.1" style="text;strokeColor=none;align=center;fillColor=none;html=1;verticalAlign=middle;whiteSpace=wrap;rounded=0;fontSize=24;fontStyle=1;fontColor=#999900;" vertex="1" parent="1">
          <mxGeometry x="25" y="-220" width="190" height="30" as="geometry" />
        </mxCell>
        <mxCell id="eUKZWZFoT0ouiTqnJSOM-20" value="" style="shape=image;html=1;verticalAlign=top;verticalLabelPosition=bottom;labelBackgroundColor=#ffffff;imageAspect=0;aspect=fixed;image=https://cdn4.iconfinder.com/data/icons/success-filloutline/64/idea-read-knowledge-light_bulb-thinking-128.png" vertex="1" parent="1">
          <mxGeometry x="101.5" y="30" width="37" height="37" as="geometry" />
        </mxCell>
        <mxCell id="eUKZWZFoT0ouiTqnJSOM-21" value="" style="rounded=1;whiteSpace=wrap;html=1;arcSize=50;" vertex="1" parent="1">
          <mxGeometry x="22.5" y="-345" width="195" height="75" as="geometry" />
        </mxCell>
        <mxCell id="eUKZWZFoT0ouiTqnJSOM-22" value="SCORE&amp;nbsp;" style="text;strokeColor=none;align=center;fillColor=none;html=1;verticalAlign=middle;whiteSpace=wrap;rounded=0;fontSize=24;fontStyle=1;fontColor=#CC6600;" vertex="1" parent="1">
          <mxGeometry x="90" y="-345" width="60" height="40" as="geometry" />
        </mxCell>
        <mxCell id="eUKZWZFoT0ouiTqnJSOM-23" value="50" style="text;strokeColor=none;align=center;fillColor=none;html=1;verticalAlign=middle;rounded=0;fontSize=32;fontStyle=1;fontColor=#009900;fontFamily=Helvetica;labelBackgroundColor=default;" vertex="1" parent="1">
          <mxGeometry x="90" y="-310" width="60" height="30" as="geometry" />
        </mxCell>
        <mxCell id="eUKZWZFoT0ouiTqnJSOM-24" value="" style="shape=image;html=1;verticalAlign=top;verticalLabelPosition=bottom;labelBackgroundColor=#ffffff;imageAspect=0;aspect=fixed;image=https://cdn0.iconfinder.com/data/icons/phosphor-fill-vol-4/256/speaker-simple-high-fill-128.png" vertex="1" parent="1">
          <mxGeometry x="-15" y="-365" width="20" height="20" as="geometry" />
        </mxCell>
        <mxCell id="eUKZWZFoT0ouiTqnJSOM-25" value="" style="rounded=0;whiteSpace=wrap;html=1;" vertex="1" parent="1">
          <mxGeometry x="-20" y="210" width="280" height="470" as="geometry" />
        </mxCell>
        <mxCell id="eUKZWZFoT0ouiTqnJSOM-26" value="I’m tall when I’m young, and I’m short when I’m old. What am I?" style="text;strokeColor=none;align=center;fillColor=none;html=1;verticalAlign=middle;whiteSpace=wrap;rounded=0;shadow=0;fillStyle=solid;fontSize=24;fontStyle=1" vertex="1" parent="1">
          <mxGeometry x="-15" y="418.75" width="270" height="52.5" as="geometry" />
        </mxCell>
        <mxCell id="eUKZWZFoT0ouiTqnJSOM-27" value="Type your answer&amp;nbsp;" style="rounded=1;whiteSpace=wrap;html=1;arcSize=50;fontSize=16;fontStyle=0" vertex="1" parent="1">
          <mxGeometry x="37.5" y="500" width="165" height="40" as="geometry" />
        </mxCell>
        <mxCell id="eUKZWZFoT0ouiTqnJSOM-28" value="Check" style="rounded=1;whiteSpace=wrap;html=1;labelPosition=center;verticalLabelPosition=middle;align=center;verticalAlign=middle;glass=0;autosize=0;fontStyle=1;fontSize=17;arcSize=50;" vertex="1" parent="1">
          <mxGeometry x="75" y="550" width="90" height="40" as="geometry" />
        </mxCell>
        <mxCell id="eUKZWZFoT0ouiTqnJSOM-29" value="Lv.1 Riddle.1" style="text;strokeColor=none;align=center;fillColor=none;html=1;verticalAlign=middle;whiteSpace=wrap;rounded=0;fontSize=24;fontStyle=1;fontColor=#999900;" vertex="1" parent="1">
          <mxGeometry x="25" y="360" width="190" height="30" as="geometry" />
        </mxCell>
        <mxCell id="eUKZWZFoT0ouiTqnJSOM-30" value="" style="shape=image;html=1;verticalAlign=top;verticalLabelPosition=bottom;labelBackgroundColor=#ffffff;imageAspect=0;aspect=fixed;image=https://cdn4.iconfinder.com/data/icons/success-filloutline/64/idea-read-knowledge-light_bulb-thinking-128.png" vertex="1" parent="1">
          <mxGeometry x="101.5" y="610" width="37" height="37" as="geometry" />
        </mxCell>
        <mxCell id="eUKZWZFoT0ouiTqnJSOM-31" value="" style="rounded=1;whiteSpace=wrap;html=1;arcSize=50;" vertex="1" parent="1">
          <mxGeometry x="22.5" y="235" width="195" height="75" as="geometry" />
        </mxCell>
        <mxCell id="eUKZWZFoT0ouiTqnJSOM-32" value="SCORE&amp;nbsp;" style="text;strokeColor=none;align=center;fillColor=none;html=1;verticalAlign=middle;whiteSpace=wrap;rounded=0;fontSize=24;fontStyle=1;fontColor=#CC6600;" vertex="1" parent="1">
          <mxGeometry x="90" y="235" width="60" height="40" as="geometry" />
        </mxCell>
        <mxCell id="eUKZWZFoT0ouiTqnJSOM-33" value="50" style="text;strokeColor=none;align=center;fillColor=none;html=1;verticalAlign=middle;rounded=0;fontSize=32;fontStyle=1;fontColor=#009900;fontFamily=Helvetica;labelBackgroundColor=default;" vertex="1" parent="1">
          <mxGeometry x="90" y="270" width="60" height="30" as="geometry" />
        </mxCell>
        <mxCell id="eUKZWZFoT0ouiTqnJSOM-34" value="" style="shape=image;html=1;verticalAlign=top;verticalLabelPosition=bottom;labelBackgroundColor=#ffffff;imageAspect=0;aspect=fixed;image=https://cdn0.iconfinder.com/data/icons/phosphor-fill-vol-4/256/speaker-simple-high-fill-128.png" vertex="1" parent="1">
          <mxGeometry x="-15" y="215" width="20" height="20" as="geometry" />
        </mxCell>
        <mxCell id="eUKZWZFoT0ouiTqnJSOM-44" style="edgeStyle=orthogonalEdgeStyle;rounded=0;orthogonalLoop=1;jettySize=auto;html=1;entryX=0.997;entryY=0.47;entryDx=0;entryDy=0;entryPerimeter=0;" edge="1" parent="1" target="eUKZWZFoT0ouiTqnJSOM-15">
          <mxGeometry relative="1" as="geometry">
            <mxPoint x="590" y="260" as="sourcePoint" />
            <Array as="points">
              <mxPoint x="428" y="260" />
              <mxPoint x="428" y="-149" />
            </Array>
          </mxGeometry>
        </mxCell>
      </root>
    </mxGraphModel>
  </diagram>
</mxfile>
